<svg xmlns="http://www.w3.org/2000/svg" xmlns:xlink="http://www.w3.org/1999/xlink" width="225" height="32" viewBox="0 0 225 32">
    <defs>
        <path id="a" d="M0 0h62v32H0z"/>
    </defs>
    <g fill="none" fill-rule="evenodd">
        <g>
            <mask id="b" fill="#fff">
                <use xlink:href="#a"/>
            </mask>
            <path fill="#1FB5B6" d="M49.176 25.138l-4.754-4.758 4.793-4.784 4.76 4.752-4.799 4.79zM62 20.326L51.227 9.57a2.84 2.84 0 0 0-3.082-.623 2.827 2.827 0 0 0-.941.623l-6.8 6.788-4.791-4.795 4.78-4.73 1.216 1.212a2.85 2.85 0 0 0 4.024 0l2.011-2.01L42.421.83a2.842 2.842 0 0 0-2.478-.79 2.829 2.829 0 0 0-1.545.79L27.603 11.55l8.775 8.827-4.78 4.773-6.823-6.789a2.854 2.854 0 0 0-2.555-.78 2.832 2.832 0 0 0-1.468.78l-6.794 6.782-7.923-7.91a2.849 2.849 0 0 0-4.023 0L0 19.242l11.947 11.926a2.832 2.832 0 0 0 1.739.819 2.842 2.842 0 0 0 2.06-.618l7.024-6.99 6.823 6.789a2.84 2.84 0 0 0 3.95.067l6.854-6.836 6.762 6.769a2.849 2.849 0 0 0 4.024 0L62 20.326z" mask="url(#b)"/>
        </g>
        <path fill="#265352" d="M117.877 17.22c0-.2-.024-.479-.05-.68-.227-1.033-1.059-1.89-2.243-1.89-1.739 0-2.646 1.562-2.646 3.504 0 2.09 1.033 3.401 2.621 3.401 1.11 0 1.991-.755 2.217-1.84.077-.277.101-.554.101-.882V17.22zm3.831-10.786v14.214c0 1.386.051 2.85.102 3.68h-3.403l-.176-1.815h-.05c-.783 1.387-2.268 2.092-3.857 2.092-2.924 0-5.267-2.495-5.267-6.326-.025-4.159 2.57-6.552 5.52-6.552 1.511 0 2.696.528 3.25 1.386h.05V6.434h3.831zm14.272 11.593c0 4.512-3.2 6.578-6.503 6.578-3.604 0-6.376-2.368-6.376-6.351 0-3.982 2.622-6.527 6.58-6.527 3.78 0 6.3 2.595 6.3 6.3zm-8.922.127c0 2.116.882 3.704 2.52 3.704 1.487 0 2.445-1.486 2.445-3.704 0-1.841-.705-3.705-2.445-3.705-1.84 0-2.52 1.889-2.52 3.705zm73.632-11.72v14.743c0 1.084.026 2.32.102 3.15H198.8l-.1-2.117h-.05c-.681 1.362-2.168 2.395-4.158 2.395-2.95 0-5.218-2.495-5.218-6.2-.025-4.058 2.495-6.553 5.469-6.553 1.865 0 3.126.882 3.679 1.865h.05V6.434h2.218zm-2.217 10.661c0-.277-.025-.657-.101-.934-.328-1.41-1.537-2.57-3.2-2.57-2.294 0-3.656 2.016-3.656 4.713 0 2.47 1.21 4.511 3.605 4.511 1.487 0 2.848-.983 3.25-2.646.077-.303.102-.604.102-.958v-2.116zm15.765-1.663c0-1.26-.026-2.295-.1-3.303h1.965l.125 2.016h.052c.604-1.158 2.015-2.293 4.032-2.293 1.688 0 4.31 1.01 4.31 5.191v7.285h-2.219v-7.032c0-1.966-.73-3.604-2.822-3.604-1.462 0-2.596 1.034-2.974 2.268-.1.277-.152.655-.152 1.034v7.334h-2.217v-8.896zm-5.86 7.434c1.576 0 2.531-.274 3.358-.623l-.81 2.006c-.74.2-1.684.356-2.85.356-3.756 0-5.999-2.495-5.999-6.175 0-3.68 2.168-6.578 5.721-6.578 3.982 0 5.04 3.503 5.04 5.746 0 .454-.05.807-.075 1.033h-8.57c.052 3 1.967 4.235 4.184 4.235zm-.757-9.426c-2.243 0-3.226 2.067-3.402 3.604h6.478c.024-1.411-.58-3.604-3.076-3.604zm-25.387 7.965c0 1.058.05 2.092.202 2.922h-2.017l-.177-1.537h-.075c-.68.958-1.991 1.815-3.731 1.815-2.47 0-3.73-1.74-3.73-3.503 0-2.948 2.62-4.563 7.335-4.536v-.253c0-1.008-.277-2.823-2.772-2.823-1.125 0-2.3.348-3.155.895l.85-2.102a8.218 8.218 0 0 1 2.632-.43c3.73 0 4.638 2.545 4.638 4.99v4.562zm-2.142-1.186v-2.116c-2.42-.05-5.167.378-5.167 2.747 0 1.435.957 2.116 2.092 2.116 1.587 0 2.596-1.008 2.948-2.04.076-.228.127-.479.127-.707zM166.576 7.164c1.96 0 3.493.426 4.227.778l-.695 1.72c-.879-.368-1.974-.658-3.582-.658-4.133 0-6.83 2.571-6.83 6.83 0 4.31 2.596 6.855 6.553 6.855 1.436 0 2.42-.202 2.923-.453V17.17h-3.435l.714-1.764h4.864v8.166c-.984.353-2.925.933-5.217.933-2.572 0-4.688-.655-6.352-2.243-1.462-1.41-2.369-3.68-2.369-6.326.026-5.066 3.504-8.77 9.2-8.77zm-62.706 4.563c1.436 0 2.72.325 3.477.703l-1.005 2.487c-.592-.266-1.466-.544-2.346-.544-.932 0-1.46.377-1.46 1.007 0 .58.478.884 1.99 1.412 2.344.806 3.326 1.991 3.352 3.806 0 2.293-1.816 4.007-5.343 4.007-1.61 0-3.045-.377-3.977-.879l1.034-2.559c.771.373 1.975.741 2.943.741 1.16 0 1.638-.403 1.638-1.034 0-.629-.379-.932-1.815-1.411-2.545-.856-3.528-2.243-3.503-3.679 0-2.319 1.966-4.057 5.015-4.057zm85.35.125c.247 0 .421.024.618.074l-.817 2.021c-1.523.036-2.604 1.207-2.902 2.845a6.29 6.29 0 0 0-.1 1.034v6.502h-2.193v-8.393c0-1.437-.026-2.671-.102-3.806h1.941l.075 2.395h.102c.554-1.639 1.89-2.672 3.377-2.672zm-37.398-.125c2.37 0 4.16 1.662 4.16 5.343v7.258h-3.732v-6.704c0-1.79-.579-2.824-1.814-2.824-.883 0-1.512.606-1.764 1.336-.1.278-.15.682-.15.985v7.207h-3.732v-6.906c0-1.562-.555-2.622-1.764-2.622-.983 0-1.563.757-1.789 1.387-.126.303-.152.655-.152.958v7.183h-3.73v-8.393c0-1.479-.047-2.745-.096-3.806h3.235l.163 1.538h.075c.53-.782 1.614-1.94 3.731-1.94 1.587 0 2.847.806 3.377 2.092h.05a5.188 5.188 0 0 1 1.588-1.488c.681-.403 1.437-.604 2.344-.604zm-58.51.952c.557.31 1.197.485 1.88.485.682 0 1.321-.175 1.878-.485v11.648h-3.758V12.68zm-4.58-5.354h3.694l-4.553 16.992h-3.545L81.685 11.88l-2.643 12.436h-3.546L70.942 7.325h3.696l2.952 11.018 2.343-11.018h3.504l2.342 11.018 2.952-11.018z"/>
        <path fill="#1EB6B7" d="M97.148 9.282a1.956 1.956 0 1 1-3.914 0 1.956 1.956 0 1 1 3.914 0"/>
    </g>
</svg>
